<svg xmlns="http://www.w3.org/2000/svg" viewBox="0 0 88 88" width="88" height="88">
  <defs>
    <linearGradient id="gID" x1="0%" y1="0%" x2="100%" y2="100%">
      <stop offset="0%" stop-color="#ffd060"/>
      <stop offset="100%" stop-color="#e8820c"/>
    </linearGradient>
    <linearGradient id="sID" x1="0%" y1="0%" x2="100%" y2="0%">
      <stop offset="0%"   stop-color="#f5a623" stop-opacity="0"/>
      <stop offset="35%"  stop-color="#f5a623" stop-opacity="1"/>
      <stop offset="65%"  stop-color="#f5a623" stop-opacity="1"/>
      <stop offset="100%" stop-color="#f5a623" stop-opacity="0"/>
    </linearGradient>
    <filter id="gFD" x="-20%" y="-20%" width="140%" height="140%">
      <feGaussianBlur stdDeviation="2" result="b"/>
      <feMerge><feMergeNode in="b"/><feMergeNode in="SourceGraphic"/></feMerge>
    </filter>
    <filter id="pFD" x="-80%" y="-80%" width="260%" height="260%">
      <feGaussianBlur stdDeviation="4" result="b"/>
      <feMerge><feMergeNode in="b"/><feMergeNode in="SourceGraphic"/></feMerge>
    </filter>
  </defs>
  <rect x="4" y="4" width="80" height="80" rx="7" fill="none" stroke="url(#gID)" stroke-width="2.2" filter="url(#gFD)"/>
  <rect x="14"  y="7.5" width="7" height="5" rx="1.5" fill="#f5a623" opacity="0.65"/>
  <rect x="30"  y="7.5" width="7" height="5" rx="1.5" fill="#f5a623" opacity="0.65"/>
  <rect x="47"  y="7.5" width="7" height="5" rx="1.5" fill="#f5a623" opacity="0.65"/>
  <rect x="63"  y="7.5" width="7" height="5" rx="1.5" fill="#f5a623" opacity="0.65"/>
  <rect x="14" y="75.5" width="7" height="5" rx="1.5" fill="#f5a623" opacity="0.65"/>
  <rect x="30" y="75.5" width="7" height="5" rx="1.5" fill="#f5a623" opacity="0.65"/>
  <rect x="47" y="75.5" width="7" height="5" rx="1.5" fill="#f5a623" opacity="0.65"/>
  <rect x="63" y="75.5" width="7" height="5" rx="1.5" fill="#f5a623" opacity="0.65"/>
  <rect x="8" y="16" width="72" height="56" fill="#07070d"/>
  <rect x="8" y="16" width="72" height="56" fill="none" stroke="#f5a623" stroke-width="0.6" opacity="0.16"/>
  <path d="M15 23 L15 19.5 L18.5 19.5" stroke="#f5a623" stroke-width="2" fill="none" stroke-linecap="round" filter="url(#gFD)"/>
  <path d="M73 23 L73 19.5 L69.5 19.5" stroke="#f5a623" stroke-width="2" fill="none" stroke-linecap="round" filter="url(#gFD)"/>
  <path d="M15 65 L15 68.5 L18.5 68.5" stroke="#f5a623" stroke-width="2" fill="none" stroke-linecap="round" filter="url(#gFD)"/>
  <path d="M73 65 L73 68.5 L69.5 68.5" stroke="#f5a623" stroke-width="2" fill="none" stroke-linecap="round" filter="url(#gFD)"/>
  <line x1="8"  y1="44" x2="80" y2="44" stroke="#f5a623" stroke-width="0.4" opacity="0.1"/>
  <line x1="44" y1="16" x2="44" y2="72" stroke="#f5a623" stroke-width="0.4" opacity="0.1"/>
  <path d="M19 44 Q44 26 69 44 Q44 62 19 44 Z" fill="none" stroke="url(#gID)" stroke-width="1.8" filter="url(#gFD)"/>
  <circle cx="44" cy="44" r="10" fill="none" stroke="url(#gID)" stroke-width="2" filter="url(#gFD)"/>
  <circle cx="44" cy="44" r="4" fill="#ffd060" filter="url(#pFD)"/>
  <line x1="8" y1="44" x2="80" y2="44" stroke="url(#sID)" stroke-width="1.4" opacity="0.9"/>
</svg>
